<svg x="0" y="0" width="48" height="48" version="1.1" xmlns="http://www.w3.org/2000/svg" xmlns:xlink="http://www.w3.org/1999/xlink"><defs><linearGradient x1="10.48942" y1="10.55083" x2="59.62797" y2="59.56656" gradientUnits="userSpaceOnUse" id="color-1"><stop offset="0.13" stop-color="#000000" stop-opacity="0.58"></stop><stop offset="1" stop-color="#000000" stop-opacity="0"></stop></linearGradient><filter id="dropshadow"><feColorMatrix type="matrix" values="0 0 0 0 .05  0 0 0 0 .15  0 0 0 0 .1  0 0 0 .8 0"></feColorMatrix> <feOffset dx="0" dy="1"></feOffset> <feGaussianBlur stdDeviation="1"></feGaussianBlur> <feComposite in="SourceGraphic"></feComposite></filter></defs><g fill="none" stroke="none" stroke-width="none" stroke-linecap="butt" stroke-linejoin="miter" stroke-miterlimit="none" stroke-dasharray="" stroke-dashoffset="0" font-family="none" font-weight="normal" font-size="none" text-anchor="start" mix-blend-mode="normal"><g fill="#000000" stroke="none" stroke-width="1" stroke-miterlimit="4" font-family="&quot;Open Sans&quot;, sans-serif" font-size="14"></g><path d="M3,24c0,-11.59798 9.40202,-21 21,-21c11.59798,0 21,9.40202 21,21c0,11.59798 -9.40202,21 -21,21c-11.59798,0 -21,-9.40202 -21,-21z" fill="#0097a7" stroke-width="1" stroke-miterlimit="10" font-family="sans-serif" font-size="12" filter="url(#dropshadow)"></path><path d="M17.99206,19.73002l-4.37065,-4.37065l1.73796,-1.73796c0,0 4.37065,4.37065 4.37065,4.37065c1.20448,-0.85737 2.67809,-1.36147 4.26998,-1.36147c0.46178,0 0.91362,0.04242 1.35181,0.12358c0,0 -2.58005,-2.58005 -2.58005,-2.58005l0,-3.62329l2.45647,0c0,0 5.24149,5.24149 5.24149,5.24149c0,0 2.17091,-2.17091 2.17091,-2.17091l12.27491,12.27491c-0.90261,10.08478 -8.93443,18.1166 -19.01922,19.01922l-10.53695,-10.53695l0.00001,-0.00001l-1.73795,-1.73795l2.14019,-2.14019l-5.2722,-5.2722l0,-2.45647c0,0 2.45647,2.45647 2.45647,2.45647l0.00001,0l-2.45647,-2.45647l3.6847,0c0,0 2.58005,2.58005 2.58005,2.58005c-0.08116,-0.4382 -0.12358,-0.89003 -0.12358,-1.35181c0,-1.59189 0.50411,-3.0655 1.36147,-4.26998z" fill="url(#color-1)" stroke-width="1" stroke-miterlimit="10" font-family="sans-serif" font-size="12"></path><path d="M31.36941,24c0,4.0716 -3.29781,7.36941 -7.36941,7.36941c-4.0716,0 -7.36941,-3.29781 -7.36941,-7.36941c0,-4.0716 3.29781,-7.36941 7.36941,-7.36941c4.0716,0 7.36941,3.29781 7.36941,7.36941z M32.18004,30.43595l2.20468,2.20468l-1.73795,1.73795l-2.20468,-2.20468z M34.37858,15.35937l-2.20468,2.20468l-1.73795,-1.73795l2.20468,-2.20468l1.73795,1.73795z M13.62142,32.64063l2.20468,-2.20468l1.73795,1.73795l-2.20468,2.20468l-1.73795,-1.73795z M15.8261,17.56405l-2.20468,-2.20468l1.73795,-1.73795l2.19854,2.20468z M14.17412,25.22823l-3.6847,0l0,-2.45647l3.6847,0z M37.51058,22.77177l0,2.45647l-3.6847,0l0,-2.45647z M25.22823,14.17412l-2.45647,0l0,-3.62329l2.45647,0z M22.77177,33.82588l2.45647,0l0,3.62329l-2.45647,0z" fill="#ffffff" stroke="none" stroke-width="0" stroke-miterlimit="4" font-family="&quot;Open Sans&quot;, sans-serif" font-size="14"></path></g></svg>